<svg width="45" height="45" viewBox="0 0 45 45" fill="none" xmlns="http://www.w3.org/2000/svg">
<mask id="mask0_1286_1748" style="mask-type:alpha" maskUnits="userSpaceOnUse" x="0" y="2" width="45" height="41">
<path fill-rule="evenodd" clip-rule="evenodd" d="M0.46875 14.6904C0.46875 7.99106 5.94857 2.60132 12.6562 2.60132C16.1901 2.60132 19.1799 4.49213 21.1122 6.0937C21.6299 6.52284 22.095 6.95054 22.5 7.34874C22.905 6.95054 23.3701 6.52284 23.8878 6.0937C25.8201 4.49213 28.8099 2.60132 32.3438 2.60132C39.0514 2.60132 44.5312 7.99106 44.5312 14.6904C44.5312 17.2025 44.0255 21.2847 41.2371 26.122C38.4565 30.9459 33.4797 36.3932 24.7355 41.7689L24.7263 41.7745C24.0554 42.1827 23.2853 42.3986 22.5 42.3986C21.7147 42.3986 20.9446 42.1827 20.2737 41.7745L20.2645 41.7689C11.5203 36.3932 6.5435 30.9459 3.76287 26.122C0.974538 21.2847 0.46875 17.2025 0.46875 14.6904ZM24.3775 12.2542C23.9351 12.8463 23.2392 13.1951 22.5 13.1951C21.7616 13.1951 21.0665 12.8471 20.624 12.2562C20.6235 12.2556 20.623 12.2549 20.6225 12.2542L20.6231 12.2551L20.624 12.2562L20.6242 12.2564L20.6251 12.2576C20.6251 12.2578 20.6242 12.2565 20.6222 12.2539L20.5984 12.223C20.5746 12.1923 20.535 12.1421 20.4806 12.075C20.3715 11.9407 20.2038 11.7404 19.984 11.4961C19.5417 11.0045 18.9029 10.3509 18.1209 9.70269C16.4902 8.35113 14.5581 7.28882 12.6562 7.28882C8.4925 7.28882 5.15625 10.6246 5.15625 14.6904C5.15625 16.5233 5.51179 19.7698 7.82399 23.781C10.1232 27.7697 14.4289 32.6388 22.5 37.6402C30.5711 32.6388 34.8768 27.7697 37.176 23.781C39.4882 19.7698 39.8438 16.5233 39.8438 14.6904C39.8438 10.6246 36.5075 7.28882 32.3438 7.28882C30.4419 7.28882 28.5098 8.35113 26.8791 9.70269C26.0971 10.3509 25.4583 11.0045 25.016 11.4961C24.7962 11.7404 24.6285 11.9407 24.5194 12.075C24.465 12.1421 24.4254 12.1923 24.4016 12.223L24.3778 12.2539C24.3765 12.2556 24.3756 12.2568 24.3752 12.2573L24.3758 12.2564L24.3769 12.2551L24.3775 12.2542Z" fill="#006FFD"/>
</mask>
<g mask="url(#mask0_1286_1748)">
<rect width="45" height="45" fill="#2F3036"/>
</g>
</svg>
