<svg width="38" height="46" viewBox="0 0 38 46" fill="none" xmlns="http://www.w3.org/2000/svg">
<path d="M19 46C21.6125 46 23.75 43.8769 23.75 41.2821H14.25C14.25 43.8769 16.3875 46 19 46ZM33.25 31.8462V20.0513C33.25 12.8092 29.3787 6.74667 22.5625 5.14256V3.53846C22.5625 1.58051 20.9712 0 19 0C17.0288 0 15.4375 1.58051 15.4375 3.53846V5.14256C8.645 6.74667 4.75 12.7856 4.75 20.0513V31.8462L0 36.5641V38.9231H38V36.5641L33.25 31.8462ZM28.5 34.2051H9.5V20.0513C9.5 14.201 13.0862 9.4359 19 9.4359C24.9138 9.4359 28.5 14.201 28.5 20.0513V34.2051Z" fill="black"/>
</svg>
