<svg width="36" height="36" viewBox="0 0 36 36" fill="none" xmlns="http://www.w3.org/2000/svg">
<mask id="mask0_1244_2272" style="mask-type:alpha" maskUnits="userSpaceOnUse" x="1" y="1" width="34" height="34">
<path d="M33.8505 14.9058C34.0567 16.0104 34.169 17.1653 34.169 18.3704C34.169 27.7971 27.86 34.5 18.3311 34.5C16.1641 34.5007 14.0182 34.0743 12.016 33.2454C10.0138 32.4164 8.19462 31.201 6.66232 29.6687C5.13002 28.1364 3.91467 26.3172 3.0857 24.3151C2.25673 22.3129 1.83039 20.167 1.83106 18C1.83039 15.833 2.25673 13.6871 3.0857 11.6849C3.91467 9.68277 5.13002 7.86356 6.66232 6.33126C8.19462 4.79897 10.0138 3.58361 12.016 2.75464C14.0182 1.92567 16.1641 1.49934 18.3311 1.5C22.7863 1.5 26.509 3.13927 29.3651 5.801L24.7138 10.4523V10.4406C22.9824 8.79124 20.7849 7.94479 18.3311 7.94479C12.8869 7.94479 8.4619 12.5441 8.4619 17.9899C8.4619 23.4341 12.8869 28.0435 18.3311 28.0435C23.2707 28.0435 26.633 25.2192 27.3236 21.3406H18.3311V14.9058H33.8522H33.8505Z" fill="#006FFD"/>
</mask>
<g mask="url(#mask0_1244_2272)">
<rect x="0.00292969" width="36" height="36" fill="white"/>
</g>
</svg>
