<svg width="101" height="101" viewBox="0 0 101 101" fill="none" xmlns="http://www.w3.org/2000/svg">
<rect width="101" height="101" rx="32" fill="#33302F"/>
<path d="M68.3508 52.35C68.4536 51.6 68.505 50.825 68.505 50C68.505 49.2 68.4536 48.4 68.3251 47.65L73.5425 43.7C74.0051 43.35 74.1337 42.675 73.8509 42.175L68.9163 33.875C68.6078 33.325 67.9653 33.15 67.3999 33.325L61.2572 35.725C59.9722 34.775 58.61 33.975 57.0936 33.375L56.1683 27.025C56.0655 26.425 55.5515 26 54.9347 26H45.0653C44.4485 26 43.9602 26.425 43.8574 27.025L42.9321 33.375C41.4157 33.975 40.0278 34.8 38.7685 35.725L32.6258 33.325C32.0604 33.125 31.4179 33.325 31.1094 33.875L26.2005 42.175C25.8921 42.7 25.9949 43.35 26.5089 43.7L31.7263 47.65C31.5978 48.4 31.495 49.225 31.495 50C31.495 50.775 31.5464 51.6 31.6749 52.35L26.4575 56.3C25.9949 56.65 25.8664 57.325 26.1491 57.825L31.0837 66.125C31.3922 66.675 32.0347 66.85 32.6001 66.675L38.7428 64.275C40.0278 65.225 41.39 66.025 42.9064 66.625L43.8317 72.975C43.9602 73.575 44.4485 74 45.0653 74H54.9347C55.5515 74 56.0655 73.575 56.1426 72.975L57.0679 66.625C58.5843 66.025 59.9722 65.225 61.2315 64.275L67.3742 66.675C67.9396 66.875 68.5821 66.675 68.8906 66.125L73.8252 57.825C74.1337 57.275 74.0051 56.65 73.5168 56.3L68.3508 52.35ZM50 59C44.9111 59 40.7475 54.95 40.7475 50C40.7475 45.05 44.9111 41 50 41C55.0889 41 59.2525 45.05 59.2525 50C59.2525 54.95 55.0889 59 50 59Z" fill="white"/>
</svg>
