<svg width="70" height="216" viewBox="0 0 70 216" fill="none" xmlns="http://www.w3.org/2000/svg">
<path d="M42.3424 177.367L65.4882 237.012C67.2973 241.674 63.7759 246.674 58.777 246.542L-71.4768 243.092C-74.5354 243.011 -77.1869 240.953 -78.0243 238.01L-81.2229 226.769C-81.6486 225.272 -81.5638 223.677 -80.982 222.234L-50.4925 146.642C-49.8755 145.113 -48.7381 143.85 -47.2809 143.077L-30.1326 133.981C-28.5 133.115 -27.3904 131.509 -27.1576 129.676C-26.6251 125.482 -30.6944 122.195 -34.6822 123.599L-39.8288 125.409C-43.566 126.724 -47.6486 124.679 -48.8324 120.898L-49.8045 117.793C-50.3459 116.064 -50.1957 114.192 -49.3853 112.571L-37.4655 88.7315C-36.9795 87.7595 -36.7265 86.6877 -36.7265 85.601V23.4082C-36.7265 20.0598 -34.3552 17.1803 -31.069 16.5381L49.2379 0.845975C53.1607 0.0794596 56.9278 2.74765 57.5066 6.70246L69.0612 85.6596C69.2147 86.7085 69.128 87.7785 68.8076 88.7889L42.1957 172.719C41.7135 174.24 41.7653 175.88 42.3424 177.367Z" fill="#E8E9F1"/>
</svg>
