<svg width="123" height="146" viewBox="0 0 123 146" fill="none" xmlns="http://www.w3.org/2000/svg">
<path fill-rule="evenodd" clip-rule="evenodd" d="M67.7342 0.808491C69.3437 1.00358 70.4903 2.46651 70.2952 4.07603L65.5985 42.8242C65.4034 44.4337 63.9404 45.5803 62.3309 45.3852C60.7214 45.1902 59.5748 43.7272 59.7699 42.1177L64.4666 3.36954C64.6617 1.76002 66.1246 0.613398 67.7342 0.808491ZM96.3417 0.793521C97.9594 0.900188 99.1844 2.29814 99.0778 3.91592L95.5552 57.3414C95.4485 58.9592 94.0506 60.1842 92.4328 60.0776C90.815 59.9709 89.59 58.5729 89.6967 56.9552L93.2192 3.52965C93.3259 1.91186 94.7239 0.686854 96.3417 0.793521ZM93.2129 68.8902C93.2129 67.2689 94.5272 65.9545 96.1485 65.9545H113.174C114.796 65.9545 116.11 67.2689 116.11 68.8902C116.11 70.5115 114.796 71.8258 113.174 71.8258H96.1485C94.5272 71.8258 93.2129 70.5115 93.2129 68.8902ZM0.551732 74.59C0.970446 73.0237 2.57962 72.0934 4.14592 72.5122L61.2071 87.7662C62.4436 88.0967 63.718 88.2641 64.9979 88.2641H119.632C121.254 88.2641 122.568 89.5784 122.568 91.1997C122.568 92.821 121.254 94.1353 119.632 94.1353H64.9979C63.206 94.1353 61.4219 93.901 59.6908 93.4382L19.8614 82.7908L13.8353 103.186C13.3759 104.741 11.743 105.629 10.1882 105.17C8.6333 104.71 7.74526 103.078 8.20466 101.523L14.1874 81.2739L2.62962 78.1842C1.06332 77.7655 0.133018 76.1563 0.551732 74.59ZM55.0518 113.509C55.0518 111.888 56.3661 110.574 57.9874 110.574H119.632C121.254 110.574 122.568 111.888 122.568 113.509C122.568 115.131 121.254 116.445 119.632 116.445H83.0477L88.4513 141.662C88.791 143.247 87.7812 144.808 86.1959 145.147C84.6106 145.487 83.0501 144.477 82.7104 142.892L77.0431 116.445H57.9874C56.3661 116.445 55.0518 115.131 55.0518 113.509Z" fill="white"/>
</svg>
