<svg width="54" height="238" viewBox="0 0 54 238" fill="none" xmlns="http://www.w3.org/2000/svg">
<path fill-rule="evenodd" clip-rule="evenodd" d="M66.0126 0.345289C67.6168 0.580051 68.727 2.07084 68.4922 3.67505L58.9872 68.6262L71.4811 81.6197C72.6048 82.7884 72.5684 84.6468 71.3997 85.7705C70.231 86.8943 68.3726 86.8578 67.2489 85.6892L54.8059 72.7485L25.3857 77.0749L43.3801 95.0693C44.5266 96.2158 44.5266 98.0745 43.3801 99.2209C42.2337 100.367 40.375 100.367 39.2285 99.2209L18.993 78.9854L5.40209 90.2331C4.15305 91.2668 2.30253 91.0922 1.26884 89.8431C0.235153 88.5941 0.409729 86.7436 1.65877 85.7099L16.0433 73.8054L9.79729 29.5625C9.57065 27.9571 10.6883 26.4719 12.2937 26.2453C13.8991 26.0186 15.3842 27.1363 15.6109 28.7417L21.6737 71.6864L53.2859 67.0376L62.6828 2.8249C62.9176 1.22069 64.4084 0.110527 66.0126 0.345289ZM117.335 20.8601C118.934 21.1266 120.014 22.6392 119.748 24.2384L114.521 55.5982C113.978 58.8599 112.655 61.9422 110.665 64.5835L82.168 102.417L90.2219 109.795L118.932 63.5003C121.578 59.2336 125.694 56.0832 130.504 54.6438L198.034 34.4341C199.587 33.9693 201.223 34.8516 201.688 36.4048C202.153 37.9581 201.27 39.594 199.717 40.0589L132.187 60.2686C128.751 61.2967 125.811 63.547 123.921 66.5946L92.7679 116.829C88.7602 123.292 90.3517 131.745 96.4351 136.308L144.259 172.175C152.663 178.479 154.96 190.106 149.583 199.132L127.469 236.253C126.639 237.645 124.837 238.102 123.444 237.272C122.051 236.442 121.595 234.64 122.425 233.248L144.539 196.127C148.38 189.68 146.739 181.375 140.736 176.872L92.9124 141.005C84.7573 134.888 82.368 123.778 87.1057 114.902L63.6046 93.3739C62.4091 92.2787 62.3277 90.4218 63.4229 89.2262C64.518 88.0307 66.375 87.9494 67.5705 89.0445L77.8186 98.4324L105.976 61.051C107.397 59.1644 108.342 56.9627 108.73 54.633L113.956 23.2732C114.223 21.6739 115.736 20.5936 117.335 20.8601Z" fill="white"/>
</svg>
