<svg width="14" height="22" viewBox="0 0 14 22" fill="none" xmlns="http://www.w3.org/2000/svg">
<path d="M3.58015 0.542603L13.4122 9.61884C13.626 9.81614 13.777 10.0299 13.8653 10.2601C13.9551 10.4903 14 10.7369 14 11C14 11.2631 13.9551 11.5097 13.8653 11.7399C13.777 11.9701 13.626 12.1839 13.4122 12.3812L3.58015 21.4574C3.1883 21.8191 2.68957 22 2.08397 22C1.47837 22 0.979646 21.8191 0.587788 21.4574C0.19593 21.0957 9.53674e-07 20.6353 9.53674e-07 20.0762C9.53674e-07 19.5172 0.19593 19.0568 0.587788 18.6951L8.92366 11L0.587788 3.30493C0.19593 2.9432 9.53674e-07 2.48281 9.53674e-07 1.92377C9.53674e-07 1.36472 0.19593 0.904337 0.587788 0.542603C0.979646 0.18087 1.47837 0 2.08397 0C2.68957 0 3.1883 0.18087 3.58015 0.542603Z" fill="#D0CECF"/>
</svg>
