<svg width="36" height="36" viewBox="0 0 36 36" fill="none" xmlns="http://www.w3.org/2000/svg">
<mask id="mask0_1244_2368" style="mask-type:alpha" maskUnits="userSpaceOnUse" x="0" y="2" width="36" height="32">
<path fill-rule="evenodd" clip-rule="evenodd" d="M34.0791 5.8219C34.8114 5.08966 34.8114 3.90248 34.0791 3.17025C33.3469 2.43803 32.1597 2.43804 31.4275 3.17028L4.42807 30.1703C3.69584 30.9025 3.69585 32.0897 4.4281 32.8219C5.16034 33.5542 6.34752 33.5541 7.07975 32.8219L10.9638 28.9378C15.3451 30.6476 20.3593 30.7728 25.0855 28.9149C30.0764 26.9513 34.0364 23.0077 36 18.0004C34.7178 14.7588 32.6174 11.9928 29.9892 9.91196L34.0791 5.8219ZM25.3972 14.5041L22.8219 17.0794C22.8795 17.3808 22.9091 17.6891 22.9091 18.0004C22.9091 19.3024 22.3919 20.551 21.4713 21.4716C20.5506 22.3923 19.302 22.9095 18 22.9095C17.6887 22.9095 17.3805 22.8799 17.0791 22.8223L14.5039 25.3976C15.5868 25.9094 16.7793 26.1822 18 26.1822C20.17 26.1822 22.251 25.3202 23.7854 23.7858C25.3198 22.2514 26.1818 20.1703 26.1818 18.0004C26.1818 16.7797 25.909 15.587 25.3972 14.5041ZM18 5.72766C20.0857 5.72766 22.1151 6.06532 24.0269 6.69635L20.5102 10.2131C19.7064 9.95403 18.8602 9.81857 18 9.81857C15.83 9.81857 13.749 10.6806 12.2146 12.215C10.6802 13.7494 9.81818 15.8304 9.81818 18.0004C9.81818 18.8606 9.95366 19.7069 10.2128 20.5107L5.25009 25.4735C2.99799 23.5038 1.17107 20.9795 0 18.0004C2.91273 10.6368 10.0473 5.72766 18 5.72766ZM14.5287 14.5291C15.3587 13.6992 16.4552 13.1971 17.6171 13.1062L13.1058 17.6176C13.1967 16.4557 13.6988 15.3591 14.5287 14.5291Z" fill="#006FFD"/>
</mask>
<g mask="url(#mask0_1244_2368)">
<rect width="36" height="36" fill="#AEAEAE"/>
</g>
</svg>
