<svg width="14" height="22" viewBox="0 0 14 22" fill="none" xmlns="http://www.w3.org/2000/svg">
<path d="M10.4198 21.4574L0.587785 12.3812C0.374045 12.1839 0.223002 11.9701 0.134656 11.7399C0.0448849 11.5097 0 11.2631 0 11C0 10.7369 0.0448849 10.4903 0.134656 10.2601C0.223002 10.0299 0.374045 9.81614 0.587785 9.61883L10.4198 0.5426C10.8117 0.180866 11.3104 0 11.916 0C12.5216 0 13.0204 0.180866 13.4122 0.5426C13.8041 0.904334 14 1.36472 14 1.92377C14 2.48281 13.8041 2.9432 13.4122 3.30493L5.07634 11L13.4122 18.6951C13.8041 19.0568 14 19.5172 14 20.0762C14 20.6353 13.8041 21.0957 13.4122 21.4574C13.0204 21.8191 12.5216 22 11.916 22C11.3104 22 10.8117 21.8191 10.4198 21.4574Z" fill="black"/>
</svg>
